<svg width="28" height="28" viewBox="0 0 28 28" fill="none" xmlns="http://www.w3.org/2000/svg">
<path d="M25.1132 15.9765L25.5 15.8867V15.4895V12.5091V12.1116L25.1128 12.022L21.8912 11.2757C21.7823 10.9539 21.6546 10.6416 21.5101 10.3394L23.2568 7.54098L23.4673 7.20376L23.1862 6.92268L21.0784 4.81507L20.7974 4.53401L20.4602 4.74447L17.7347 6.44551C17.4016 6.27304 17.0553 6.12202 16.6979 5.99463L15.9774 2.88707L15.8877 2.5H15.4903H12.5097H12.1123L12.0226 2.88713L11.3295 5.87814C10.912 6.00674 10.5086 6.16667 10.1219 6.35494L7.5397 4.74439L7.20266 4.53417L6.92167 4.81495L4.81393 6.92114L4.53263 7.20223L4.7432 7.53958L6.31132 10.0518C6.09312 10.4673 5.90852 10.9035 5.76063 11.356L2.88711 12.022L2.5 12.1117V12.5091V15.4895V15.8869L2.88711 15.9766L5.76063 16.6426C5.90852 17.0951 6.09312 17.5313 6.31132 17.9468L4.7432 20.459L4.5327 20.7962L4.81381 21.0773L6.92155 23.1849L7.20254 23.4659L7.5397 23.2556L10.1219 21.6451C10.5086 21.8333 10.912 21.9933 11.3295 22.1219L12.0226 25.1129L12.1123 25.5H12.5097H15.4903H15.8878L15.9774 25.1128L16.6966 22.0067C17.0541 21.8792 17.3998 21.7281 17.733 21.5558L20.4588 23.257L20.796 23.4674L21.077 23.1864L23.1848 21.0787L23.4659 20.7977L23.2554 20.4604L21.5087 17.6619C21.6532 17.3594 21.7808 17.0468 21.8897 16.7255L25.1132 15.9765Z" stroke="black" stroke-miterlimit="10"/>
<circle cx="14.0008" cy="13.9999" r="4.42857" stroke="black"/>
</svg>
